<?xml version="1.0" encoding="UTF-8" standalone="no"?>
<!-- Created with Inkscape (http://www.inkscape.org/) -->

<svg
   width="210mm"
   height="297mm"
   viewBox="0 0 210 297"
   version="1.1"
   id="svg1"
   inkscape:version="1.3.2 (091e20e, 2023-11-25, custom)"
   sodipodi:docname="preferixLogo1.svg"
   xmlns:inkscape="http://www.inkscape.org/namespaces/inkscape"
   xmlns:sodipodi="http://sodipodi.sourceforge.net/DTD/sodipodi-0.dtd"
   xmlns="http://www.w3.org/2000/svg"
   xmlns:svg="http://www.w3.org/2000/svg">
  <sodipodi:namedview
     id="namedview1"
     pagecolor="#ffffff"
     bordercolor="#000000"
     borderopacity="0.25"
     inkscape:showpageshadow="2"
     inkscape:pageopacity="0.0"
     inkscape:pagecheckerboard="0"
     inkscape:deskcolor="#d1d1d1"
     inkscape:document-units="mm"
     inkscape:zoom="0.73139029"
     inkscape:cx="396.50513"
     inkscape:cy="561.25984"
     inkscape:window-width="1920"
     inkscape:window-height="1017"
     inkscape:window-x="-8"
     inkscape:window-y="-8"
     inkscape:window-maximized="1"
     inkscape:current-layer="layer1" />
  <defs
     id="defs1">
    <inkscape:path-effect
       effect="roughen"
       id="path-effect26"
       is_visible="true"
       lpeversion="1.2"
       global_randomize="3.7;1258008280"
       displace_x="0.6;262115149"
       displace_y="0.4;-1024774012"
       method="size"
       max_segment_size="5"
       segments="17"
       handles="smooth"
       shift_nodes="true"
       fixed_displacement="false"
       spray_tool_friendly="false" />
    <inkscape:path-effect
       effect="lattice2"
       gridpoint0="103.95117,-68.564453"
       gridpoint1="217.39844,-68.564453"
       gridpoint2="103.95117,44.884766"
       gridpoint3="217.39844,44.884766"
       gridpoint4="132.31299,-68.564453"
       gridpoint5="189.03662,-68.564453"
       gridpoint6="132.31299,44.884766"
       gridpoint7="189.03662,44.884766"
       gridpoint8x9="160.6748,-68.564453"
       gridpoint10x11="160.6748,44.884766"
       gridpoint12="103.95117,-40.202148"
       gridpoint13="217.39844,-40.202148"
       gridpoint14="103.95117,16.522461"
       gridpoint15="217.39844,16.522461"
       gridpoint16="132.31299,-40.202148"
       gridpoint17="189.03662,-40.202148"
       gridpoint18="132.31299,16.522461"
       gridpoint19="189.03662,16.522461"
       gridpoint20x21="160.6748,-40.202148"
       gridpoint22x23="160.6748,16.522461"
       gridpoint24x26="103.95117,-11.839844"
       gridpoint25x27="217.39844,-11.839844"
       gridpoint28x30="132.31299,-11.839844"
       gridpoint29x31="189.03662,-11.839844"
       gridpoint32x33x34x35="160.6748,-11.839844"
       id="path-effect25"
       is_visible="true"
       lpeversion="1"
       horizontal_mirror="false"
       vertical_mirror="false"
       perimetral="false"
       live_update="true" />
    <inkscape:path-effect
       effect="rough_hatches"
       id="path-effect24"
       is_visible="true"
       lpeversion="1.2"
       direction="160.6748,-16.839844 , 28.361817,0"
       dist_rdm="73.4;1"
       growth="1.2"
       do_bend="true"
       bender="160.6748,-11.839844 , 5,0"
       bottom_edge_variation="8.44;1"
       top_edge_variation="9.44;1"
       bottom_tgt_variation="-1.7;1"
       top_tgt_variation="0;1"
       scale_bf="1"
       scale_bb="1"
       scale_tf="1"
       scale_tb="1"
       top_smth_variation="0;1"
       bottom_smth_variation="0;1"
       fat_output="true"
       stroke_width_top="0"
       stroke_width_bottom="1"
       front_thickness="1"
       back_thickness="0.25" />
    <inkscape:path-effect
       effect="gears"
       id="path-effect23"
       is_visible="true"
       lpeversion="1"
       teeth="3"
       phi="5.3"
       min_radius="5" />
    <inkscape:path-effect
       effect="sketch"
       id="path-effect22"
       is_visible="true"
       lpeversion="1"
       nbiter_approxstrokes="8.5876623"
       parallel_offset="5;1"
       strokelength="37.305195"
       strokelength_rdm="0.3;1"
       strokeoverlap="0.0097402597"
       strokeoverlap_rdm="0.3;1"
       ends_tolerance="0.1;1"
       tremble_size="5;1"
       tremble_frequency="1.3893182"
       nbtangents="5"
       tgt_places_rdmness="1;1"
       tgtlength="0"
       tgtlength_rdm="0.3;1"
       tgtscale="0" />
    <rect
       x="181.84545"
       y="287.1244"
       width="462.13356"
       height="504.51859"
       id="rect1" />
  </defs>
  <g
     inkscape:label="Ebene 1"
     inkscape:groupmode="layer"
     id="layer1">
    <text
       xml:space="preserve"
       transform="matrix(10.489212,0,0,10.489212,-1833.9464,-2964.3268)"
       id="text1"
       style="white-space:pre;shape-inside:url(#rect1);display:inline;fill:#000000"
       inkscape:export-filename="text1.png"
       inkscape:export-xdpi="96"
       inkscape:export-ydpi="96"><tspan
         x="181.8457"
         y="298.0435"
         id="tspan3"><tspan
           style="font-size:12px;font-family:'Gentium Basic';-inkscape-font-specification:'Gentium Basic, Normal'"
           id="tspan2">P</tspan></tspan></text>
    <g
       id="rect2"
       transform="matrix(0.70517173,0.70903655,0.70903655,-0.70517173,0,0)"
       inkscape:path-effect="#path-effect26">
      <path
         style="color:#000000;fill:#0200c7;fill-opacity:0;-inkscape-stroke:none"
         d="m 105.53003,-66.490687 c -0.45884,-1.538634 3.7089,0.471067 5.34832,0.231544 1.67082,-0.244111 3.805,-0.178984 5.49348,-0.195197 1.51295,-0.01453 3.01231,2.11e-4 4.52532,-0.006 1.66136,-0.0068 3.51283,0.206769 5.1742,0.202713 1.59378,-0.0039 3.11134,1.223225 4.70511,1.216272 1.69116,-0.0074 3.39082,-0.206985 5.08168,-0.23996 1.65397,-0.03226 3.3436,-0.07212 4.99741,-0.112148 1.64444,-0.0398 4.46089,-0.513273 6.10528,-0.555645 1.26101,-0.03249 2.9418,-0.435031 4.20293,-0.462884 1.5134,-0.03342 3.06348,-0.39301 4.5771,-0.414572 1.644,-0.02342 3.09396,0.213017 4.73811,0.206785 1.72199,-0.0065 3.58751,-0.04336 5.30951,-0.04404 1.60911,-6.39e-4 2.23389,-0.380039 3.84299,-0.376566 1.98676,0.0043 4.25804,-0.325573 6.24467,-0.302334 1.56589,0.01832 3.50482,0.0058 5.07041,0.04142 1.53351,0.03489 3.16971,0.02168 4.70294,0.06721 1.62249,0.04818 3.98785,0.04231 5.61012,0.09763 1.40869,0.04804 4.11105,-0.148683 5.51958,-0.09614 1.22978,0.04587 2.52643,0.112402 3.75536,0.176975 1.62964,0.08563 4.24113,0.167794 5.87086,0.251445 1.32575,0.06805 2.24547,0.09218 3.5719,0.145023 1.43875,0.05732 3.40071,0.144757 5.10222,0.161318 1.6565,0.01612 -0.0391,4.275684 -2e-5,5.931801 0.0315,1.335529 -0.007,2.701411 -0.002,4.037305 0.005,1.646711 0.26058,3.202185 0.26582,4.848895 0.005,1.686998 0.008,3.275551 0.007,4.962558 -0.001,1.689467 0.13858,3.775988 0.13559,5.465453 -0.003,1.524485 0.41544,3.537076 0.41002,5.061553 -0.005,1.495536 0.0377,3.140871 0.0248,4.63636 -0.0139,1.607414 0.33779,3.816406 0.31845,5.423763 -0.0175,1.459012 0.0607,3.314931 0.0354,4.773828 -0.0265,1.525681 -0.80508,3.332832 -0.83798,4.858388 -0.0336,1.556209 -0.30144,3.163491 -0.32349,4.719906 -0.0232,1.638584 1.00669,3.0169469 0.99855,4.6556758 -0.009,1.7480647 -0.78715,3.4961911 -0.81521,5.2440522 -0.0265,1.65204573 -0.64833,3.2863491 -0.66077,4.9385609 -0.0125,1.6648881 0.0629,3.8458026 0.0821,5.5106275 0.0171,1.4856376 0.15977,2.2442406 0.18975,3.7296746 0.0383,1.897418 0.35327,3.774034 0.39177,5.671448 0.0337,1.661364 0.22304,3.214324 0.23397,4.875994 0.0111,1.69367 -0.003,3.292434 -0.0214,4.986035 -0.0188,1.688156 -0.36321,3.388816 -0.38909,5.076879 -0.0254,1.653412 0.68429,3.132418 0.74636,4.78486 0.0616,1.63963 -0.47162,3.925634 -0.25251,5.872729 0.18573,1.650477 -4.07946,-0.07872 -5.74021,-0.05649 -1.40818,0.01886 -3.34776,0.500856 -4.75605,0.4925 -1.48654,-0.0088 -2.83883,-0.02572 -4.32519,-0.05023 -1.70553,-0.02813 -3.43846,-0.320845 -5.14395,-0.351332 -1.64967,-0.02949 -3.30124,-0.25783 -4.95101,-0.281061 -1.65929,-0.02337 -2.56033,0.107248 -4.2197,0.09139 -1.91403,-0.01829 -3.69433,-0.32614 -5.60837,-0.342507 -1.70491,-0.01458 -3.43547,0.177653 -5.14043,0.169479 -1.65265,-0.0079 -4.3918,-0.02429 -6.04446,-0.03246 -1.2987,-0.0064 -3.43966,0.286455 -4.73836,0.279921 -1.38092,-0.0069 -2.10365,-0.180619 -3.48455,-0.192318 -1.87975,-0.01593 -3.80503,0.08139 -5.68479,0.06464 -1.6461,-0.01467 -3.22223,-0.492447 -4.8683,-0.510296 -1.68315,-0.01825 -2.41062,-0.09288 -4.09386,-0.09871 -1.98007,-0.0069 -4.09677,-0.147346 -6.07685,-0.14154 -1.61622,0.0047 -3.25268,0.203096 -4.86885,0.21753 -1.65316,0.01476 -2.47886,-0.05407 -4.13206,-0.04491 -1.93672,0.01073 -3.60251,0.372068 -5.53923,0.383074 -1.75196,0.01 -3.7053,-0.523628 -5.45704,-0.552759 -1.59446,-0.02652 -3.41101,0.09346 -5.0053,0.128674 -1.58516,0.03501 -2.24064,0.05742 -3.82609,0.07508 -1.64028,0.01828 -3.90446,-0.0078 -5.83603,0.236338 -1.64701,0.208154 0.1005,-3.391723 0.0468,-5.050963 -0.0529,-1.635768 0.23535,-3.230424 0.23107,-4.867042 -0.004,-1.674929 -0.29435,-2.665703 -0.30569,-4.3406 -0.0128,-1.887503 0.13255,-3.646052 0.1276,-5.533592 -0.004,-1.703242 -0.0122,-3.199781 -0.0173,-4.903021 -0.005,-1.728994 -0.1152,-3.488475 -0.12036,-5.217468 -0.005,-1.64984 0.30675,-3.2484661 0.30379,-4.8983109 -0.003,-1.6776065 -0.53866,-3.394232 -0.54601,-5.0718251 -0.007,-1.6466747 0.46673,-4.04520392 0.46659,-5.6918944 -1.3e-4,-1.4096867 0.77573,-3.2180317 0.77217,-4.627714 -0.004,-1.5313793 -0.10775,-3.1408836 -0.12832,-4.6721296 -0.022,-1.635009 -0.0167,-2.641088 -0.0487,-4.275931 -0.0366,-1.870164 -0.26367,-3.805988 -0.30757,-5.675996 -0.0384,-1.635562 0.89634,-3.185711 0.86155,-4.821353 -0.0362,-1.702324 0.0191,-3.0935 -0.0483,-4.794875 -0.07,-1.766693 0.13895,-3.893181 0.0487,-5.658953 -0.079,-1.545724 -1.56084,-3.13297 -1.65912,-4.677591 -0.103,-1.618796 0.4453,-2.704961 0.43379,-4.32699 -0.0131,-1.840487 -0.15278,-3.711812 -0.17467,-5.552215 -0.0196,-1.649235 -0.79763,-2.956089 -0.79874,-4.60544 -0.001,-1.793619 0.17439,-3.6805 0.37483,-5.462885 0.18716,-1.66438 0.40174,-3.27781 -0.0571,-4.816445 z"
         id="path21"
         inkscape:original-d="M 105.99923,-66.514557 H 215.34981 V 42.836021 H 105.99923 Z" />
      <path
         style="color:#000000;fill:#0400e6;-inkscape-stroke:none"
         d="m 103.99324,-68.150506 c -1.54791,0.435847 0.57778,2.90543 0.27042,4.520638 -0.30759,1.61645 1.15098,3.193448 1.13139,4.838788 -0.0201,1.688586 -0.95188,3.505278 -1.00336,5.193198 -0.0485,1.589713 -1.6683,2.983789 -1.6988,4.573949 -0.0328,1.709701 0.53929,3.741222 0.54947,5.451207 0.009,1.536949 0.0185,3.121475 0.0347,4.658367 0.0171,1.628617 0.32191,2.762369 0.34266,4.390945 0.023,1.807425 0.0436,3.774227 0.0624,5.581701 0.0165,1.590788 0.33949,3.906391 0.35351,5.497203 0.0123,1.401731 0.19462,2.479314 0.20136,3.881084 0.008,1.752488 0.45786,3.399997 0.45655,5.152505 -0.001,1.681458 0.55383,3.588861 0.53751,5.2702409 -0.0153,1.5756812 -0.7259,3.0525726 -0.76119,4.6279328 -0.0374,1.6707853 -0.92796,3.3507004 -0.96097,5.02157887 -0.0323,1.63787383 0.65814,2.94605553 0.65476,4.58424543 -0.004,1.7549196 -0.42785,3.3104466 -0.43759,5.065343 -0.009,1.710554 1.55884,3.959302 1.56517,5.669871 0.005,1.481295 -0.32739,2.787282 -0.38582,4.267434 -0.0671,1.699136 -1.01406,3.061507 -1.10199,4.759691 -0.0902,1.742188 0.10968,3.825285 0.11497,5.569798 0.005,1.531487 0.11544,3.054165 0.12018,4.585652 0.005,1.647374 0.14285,3.379238 0.11967,5.026457 -0.0227,1.610585 -0.18615,3.490296 -0.0742,5.230315 0.10539,1.638863 3.3255,0.09053 4.96675,0.03349 1.62803,-0.05658 3.77454,-0.166621 5.40352,-0.175261 1.46988,-0.0078 3.217,-0.395093 4.68689,-0.398071 1.55053,-0.0031 2.9122,-0.170255 4.46272,-0.163933 1.70616,0.007 3.46447,0.0082 5.17059,0.02192 1.62493,0.01305 3.36699,0.02627 4.99191,0.04115 1.60301,0.01468 3.22018,-0.06608 4.8232,-0.05136 1.6377,0.01503 3.42174,-0.874293 5.05943,-0.85848 1.60022,0.01545 4.53732,0.0066 6.13733,0.03661 1.19821,0.02246 2.28396,0.682487 3.48206,0.710408 1.67304,0.03899 3.02424,-0.01599 4.69743,0.01621 1.74896,0.03366 2.91923,-0.584309 4.66827,-0.555048 1.84059,0.03079 3.20584,-0.0057 5.04617,0.03823 1.80131,0.043 3.62655,0.167132 5.42769,0.217265 1.63198,0.04542 2.53504,0.107868 4.16705,0.152472 1.883,0.05147 3.74821,-0.05392 5.63135,-0.0079 1.64848,0.04028 3.0708,0.586629 4.71925,0.628339 1.7126,0.04333 2.36001,0.04806 4.07311,0.06062 1.99766,0.01465 4.2541,-0.06886 6.2518,-0.07572 1.55593,-0.0053 2.94966,-0.0074 4.50559,-0.01158 1.69631,-0.0046 3.31891,-0.009 5.01521,-0.0135 1.66682,-0.0044 3.3213,-0.889272 4.98811,-0.894003 1.66547,-0.0047 3.17615,0.86969 4.80416,0.880181 1.64438,0.0106 -0.62652,-3.218735 -0.32136,-4.83458 0.31167,-1.650333 0.22304,-3.350427 0.24573,-5.029779 0.0222,-1.645123 -0.38223,-3.20054 -0.37185,-4.84578 0.0106,-1.675672 -0.1271,-2.633511 -0.11073,-4.309137 0.0184,-1.884441 -0.18653,-3.438566 -0.16353,-5.322957 0.0214,-1.755808 0.44531,-3.705514 0.47152,-5.461258 0.0235,-1.577225 0.38395,-2.641903 0.4027,-4.219193 0.0216,-1.8140085 0.0903,-3.6037133 0.1009,-5.4178195 0.01,-1.6526811 -1.13998,-3.1552104 -1.1369,-4.80791673 0.003,-1.69808977 -0.196,-3.47584327 -0.17662,-5.17382547 0.0185,-1.6212383 -0.01,-3.0699035 0.0215,-4.6909457 0.0329,-1.7034766 0.11309,-3.4989776 0.15524,-5.2022486 0.0399,-1.613008 -0.30806,-2.904418 -0.26471,-4.517337 0.0472,-1.756186 0.13638,-4.152691 0.19494,-5.908535 0.0477,-1.429667 -0.33846,-3.323336 -0.28756,-4.752891 0.0533,-1.496575 0.15089,-2.70026 0.21777,-4.19629 0.0777,-1.738943 -0.20794,-3.545248 -0.12475,-5.283939 0.0779,-1.627651 -0.46448,-3.482321 -0.36939,-5.109058 0.0928,-1.588046 0.15427,-3.112295 0.29281,-4.697008 0.14485,-1.656982 0.81051,-2.949924 0.96962,-4.605598 0.16653,-1.732986 0.95,-3.03034 1.00388,-4.770475 0.0559,-1.803461 0.3953,-3.845588 0.22505,-5.641863 -0.1575,-1.661696 -0.84124,-3.085591 -0.84079,-4.665961 4.6e-4,-1.644143 -2.8382,0.0865 -4.4819,0.04847 -1.79388,-0.0415 -3.57033,-0.0185 -5.36469,-0.02165 -1.65024,-0.0029 -3.44231,0.05272 -5.09255,0.05107 -1.59689,-0.0016 -3.08424,0.23292 -4.68113,0.23055 -1.68106,-0.0025 -3.30002,0.140481 -4.98106,0.133139 -1.66539,-0.0073 -3.91924,0.308443 -5.58461,0.296729 -1.44963,-0.0102 -1.8895,-0.170126 -3.33908,-0.18623 -1.98006,-0.022 -3.40626,0.01466 -5.3863,-0.0089 -1.82881,-0.02172 -3.6576,-0.192307 -5.4864,-0.214831 -1.64313,-0.02024 -3.48072,-0.232681 -5.12388,-0.250073 -1.57843,-0.01671 -2.99484,0.340741 -4.57332,0.329496 -1.69918,-0.0121 -2.57256,0.0418 -4.27171,0.02655 -1.91969,-0.01722 -4.1388,0.444561 -6.05845,0.423857 -1.54785,-0.01669 -2.90783,-0.501333 -4.45551,-0.529559 -1.7031,-0.03106 -3.27821,0.264977 -4.9814,0.2398 -1.68867,-0.02496 -3.69762,0.104241 -5.38618,0.07288 -1.53877,-0.02858 -2.81951,-0.572711 -4.35811,-0.609394 -1.72538,-0.04114 -3.86951,-0.04249 -5.59531,-0.05826 -1.50478,-0.01375 -2.9665,-0.454661 -4.47133,-0.457519 -1.66269,-0.0032 -2.86208,-0.0096 -4.52406,0.03885 -1.79834,0.05238 -2.77287,-0.103697 -4.5706,-0.0335 -1.91966,0.07496 -3.89705,0.605762 -5.81534,0.71014 -1.70962,0.09302 -3.27294,-0.253302 -4.82086,0.182546 z m 3.65248,3.562359 c -0.39288,-1.617428 3.53657,0.08619 5.13119,0.104424 1.61333,0.01845 3.16581,-0.0937 4.77924,-0.09251 1.61516,0.0012 3.17584,-0.48657 4.791,-0.48261 1.61469,0.004 3.35637,0.03457 4.97099,0.0506 1.55246,0.01541 2.90894,-0.258093 4.46138,-0.239929 1.66183,0.01945 3.33638,0.04188 4.99813,0.0674 1.59033,0.02442 2.99691,0.0097 4.58722,0.03588 1.65581,0.02723 3.30034,-0.0032 4.95614,0.02463 1.5984,0.02684 3.14314,-0.0905 4.74154,-0.06333 1.61323,0.02743 3.29983,0.101949 4.91303,0.131376 1.56938,0.02863 3.74607,0.44852 5.31546,0.476432 1.38945,0.02471 3.67465,0.09409 5.06421,0.110831 1.29585,0.01561 2.5082,0.255746 3.80411,0.265233 1.62276,0.01188 3.55222,-0.133075 5.17502,-0.135412 1.49252,-0.0021 3.10604,0.214794 4.59856,0.209578 1.55537,-0.0054 3.1738,0.221002 4.72909,0.204376 1.57625,-0.01685 2.85258,0.504664 4.42851,0.468978 1.70637,-0.03864 3.30647,-0.280809 5.01088,-0.371101 1.62174,-0.08591 3.0325,-0.23527 4.65465,-0.313228 1.65943,-0.07975 2.64887,-0.349782 4.3095,-0.398536 1.81658,-0.05333 3.64963,-0.0212 5.46673,0.0099 1.63685,0.028 3.20908,0.04945 4.77637,0.353291 1.56122,0.302664 -0.7731,3.159484 -0.40004,4.705396 0.37894,1.570296 1.24299,4.556384 1.2682,6.17156 0.0179,1.147995 -0.70047,2.357258 -0.71206,3.505335 -0.0158,1.567285 -0.28332,3.138811 -0.29351,4.706143 -0.0103,1.588548 -0.0205,3.193057 -0.0222,4.781638 -0.002,1.585108 0.91343,3.39702 0.91562,4.982128 0.002,1.516615 -0.005,2.870018 -0.0174,4.386585 -0.0132,1.645802 0.43103,3.33302 0.40914,4.97873 -0.021,1.581068 0.25968,3.240439 0.22616,4.821292 -0.0333,1.568931 -0.3871,3.817353 -0.43262,5.385976 -0.0394,1.359561 -0.19021,2.632393 -0.22961,3.991955 -0.0468,1.616212 0.18126,3.1735484 0.13907,4.7898877 -0.0421,1.6115982 -0.18769,2.8454605 -0.23233,4.4569897 -0.0475,1.71350784 0.0171,3.37937862 -0.0258,5.0930053 -0.0403,1.6060417 0.0156,2.3730711 -0.0241,3.9791273 -0.0462,1.8696475 -0.0712,3.596305 -0.11783,5.465941 -0.0408,1.636992 -0.32465,3.460975 -0.36375,5.09801 -0.0364,1.525127 0.11018,3.909949 0.0933,5.435418 -0.0145,1.304429 -0.18344,2.241717 -0.20164,3.546099 -0.0239,1.7119 -0.66278,3.510868 -0.65914,5.22293 0.003,1.577151 0.25359,3.795004 0.42077,5.363272 0.16425,1.54075 0.33591,2.63658 0.91618,3.80501 0.71381,1.437308 -3.36825,0.851258 -4.91626,0.428147 -1.51836,-0.415005 -3.0806,-0.346545 -4.6545,-0.36817 -1.62399,-0.02231 -2.75633,-0.243022 -4.38047,-0.246884 -1.76908,-0.0042 -3.43519,-0.61397 -5.20426,-0.606381 -1.64265,0.007 -3.11073,0.08369 -4.75323,0.106789 -1.66316,0.02339 -2.63048,-0.104747 -4.29356,-0.07601 -1.83782,0.03176 -3.8719,-0.09919 -5.70963,-0.06247 -1.54058,0.03078 -3.2933,0.478084 -4.8338,0.512499 -1.52992,0.03418 -3.08917,0.04649 -4.61919,0.07518 -1.59442,0.0299 -2.12641,0.185257 -3.7209,0.21083 -1.95769,0.0314 -3.94698,0.525302 -5.90481,0.547488 -1.59358,0.01806 -3.4584,0.04984 -5.05208,0.05345 -1.5152,0.0034 -1.94526,-0.519987 -3.46046,-0.525651 -1.96611,-0.0073 -3.91044,0.0186 -5.87656,0.02335 -1.61213,0.0039 -3.40924,-0.187837 -5.02135,-0.179973 -1.54403,0.0075 -3.54426,-0.269701 -5.08821,-0.252407 -1.45579,0.01631 -2.91926,0.07333 -4.37473,0.107763 -1.60184,0.0379 -4.59805,0.106934 -6.19965,0.153669 -1.13897,0.03324 -2.85958,0.320437 -3.99851,0.35514 -1.40788,0.0429 -2.80828,0.266888 -4.21681,0.270993 -1.60979,0.0047 -2.8441,0.173893 -4.45266,0.110744 -1.47953,-0.05808 -3.42864,-0.356269 -5.14957,-0.372251 -1.59435,-0.01481 -0.12279,-3.248725 -0.0613,-4.841953 0.0607,-1.573739 -0.0549,-3.34161 -0.0517,-4.916515 0.003,-1.530499 0.0338,-3.117363 0.0377,-4.647859 0.004,-1.575577 -0.34842,-2.901998 -0.34539,-4.477577 0.003,-1.678252 0.4476,-2.603914 0.45805,-4.282136 0.0115,-1.844391 -0.22282,-3.748705 -0.21888,-5.593128 0.003,-1.574653 0.0266,-3.1434336 0.0312,-4.7180842 0.005,-1.5963407 -0.0764,-2.8723184 -0.0716,-4.4686586 0.005,-1.7013294 -1.05119,-2.94711097 -1.04442,-4.6484347 0.007,-1.7531693 0.85722,-3.5579639 0.88841,-5.3108695 0.028,-1.571459 -0.63447,-3.024885 -0.61175,-4.596428 0.0237,-1.638792 -0.27301,-3.262418 -0.23792,-4.901006 0.0343,-1.60418 0.0345,-3.402387 0.0828,-5.006208 0.0461,-1.530374 0.42924,-3.251235 0.48319,-4.781353 0.0537,-1.524263 0.10373,-3.178673 0.15004,-4.703179 0.0471,-1.549072 0.0593,-3.009599 0.0991,-4.558876 0.0416,-1.622806 -0.0276,-2.439818 0.008,-4.062773 0.0406,-1.862896 0.0946,-3.62459 0.13451,-5.4875 0.0349,-1.627117 -0.008,-3.056871 0.0209,-4.684105 0.0294,-1.660211 -0.0744,-3.09675 -0.0418,-4.756902 0.0328,-1.669783 0.43933,-3.289973 0.49577,-4.959123 0.0549,-1.622874 -0.24976,-3.33443 -0.64265,-4.951857 z"
         id="path22"
         inkscape:original-d="M 103.95117,-68.564453 V 44.884766 H 217.39844 V -68.564453 Z m 4.09766,4.099609 H 213.30078 V 40.787109 H 108.04883 Z" />
    </g>
  </g>
</svg>
